<?xml version="1.0" encoding="iso-8859-1"?>
<!-- Generator: Adobe Illustrator 19.0.0, SVG Export Plug-In . SVG Version: 6.00 Build 0)  -->
<svg version="1.1" id="Layer_1" xmlns="http://www.w3.org/2000/svg" xmlns:xlink="http://www.w3.org/1999/xlink" x="0px" y="0px"
	 viewBox="0 0 366.972 366.972" style="enable-background:new 0 0 366.972 366.972;" xml:space="preserve">
<g id="XMLID_29_">
	<g id="XMLID_53_">
		<path id="XMLID_57_" style="fill:#A0756F;" d="M277.967,160.938c0-0.236-0.001-0.473-0.001-0.701
			c0-75.654-75.543-131.179-95.21-131.179c-21.667,0-93.75,55.525-93.75,131.179c0,0.228,0,0.465-0.001,0.701
			c-15.37,6.067-26.25,21.042-26.25,38.568c0,22.898,18.562,41.46,41.46,41.46c30.865,0,55.593,17.084,78.54,17.009
			s48.214-17.009,80-17.009c21.805,0,41.46-18.562,41.46-41.46C304.217,181.979,293.337,167.005,277.967,160.938z"/>
		<path id="XMLID_54_" style="fill:#8C6762;" d="M277.967,160.938c0-0.236,0-0.473,0-0.701c0-74.961-74.158-130.151-94.647-131.155
			v228.879c22.797-0.345,47.91-16.995,79.437-16.995c21.805,0,41.46-18.562,41.46-41.46
			C304.217,181.979,293.337,167.004,277.967,160.938z"/>
	</g>
	<g id="XMLID_50_">
		<path id="XMLID_350_" style="fill:#F3D8B6;" d="M226.675,301.729c0,0-14.458-18.417-14.458-81.376h-26.23h-5.002h-26.23
			c0,62.959-14.458,81.376-14.458,81.376c0,47.368,28.832,48.824,40.688,53.239v1.537c0,0,0.922-0.188,2.501-0.68
			c1.579,0.492,2.501,0.68,2.501,0.68v-1.537C197.843,350.553,226.675,349.096,226.675,301.729z"/>
		<path id="XMLID_351_" style="fill:#EEC8A2;" d="M212.218,220.353h-26.23l-2.667-0.024V355.8c1.579,0.492,2.667,0.704,2.667,0.704
			v-1.537c11.856-4.414,40.688-5.871,40.688-53.239C226.675,301.729,212.218,283.312,212.218,220.353z"/>
	</g>
	<g id="XMLID_47_">
		<path id="XMLID_49_" style="fill:#DFE0F2;" d="M262.864,274.209c-6.043-3.641-12.69-6.43-19.844-8.196
			c-4.824-1.206-17.048-1.949-25.018-2.188c-8.189,8.543-20.609,13.994-34.515,13.994s-26.326-5.451-34.515-13.994
			c-7.969,0.239-20.194,0.982-25.018,2.188c-7.154,1.766-13.802,4.554-19.844,8.196c-23.228,13.951-37.605,40.482-37.605,70.913
			v21.849h233.963v-21.849C300.468,314.691,286.091,288.16,262.864,274.209z"/>
		<path id="XMLID_48_" style="fill:#C6C8D7;" d="M262.864,274.209c-6.043-3.641-12.69-6.43-19.844-8.196
			c-4.824-1.206-17.048-1.949-25.018-2.188c-8.189,8.543-20.608,13.994-34.515,13.994c-0.056,0-0.111-0.004-0.167-0.004v89.156
			h117.148v-21.849C300.468,314.691,286.091,288.159,262.864,274.209z"/>
	</g>
	<g id="XMLID_44_">
		<polyline id="XMLID_352_" style="fill:#AEC7EA;" points="113.487,366.972 113.487,316.972 253.487,316.972 253.487,366.972 		"/>
		<rect id="XMLID_439_" x="183.32" y="316.972" style="fill:#92A6C1;" width="70.167" height="50"/>
	</g>
	<g id="XMLID_37_">
		<g id="XMLID_41_">
			<path id="XMLID_441_" style="fill:#F3DBC4;" d="M236.828,77.777c1.13,2.056,2.166,4.156,3.117,6.287
				C239.004,81.792,237.968,79.685,236.828,77.777z"/>
			<path id="XMLID_443_" style="fill:#F3DBC4;" d="M157.891,121.454c-1.621-2.782-3.112-5.444-4.497-8.014
				c-6.77,14.695-21.411,32.411-33.6,40.652c1.26,19.085,4.426,35.578,8.038,42.246c9.042,16.694,29.22,38.956,55.657,38.956
				c26.431,0,46.607-22.262,55.652-38.956c3.337-6.161,6.293-20.711,7.719-37.943C235.578,157.699,176.03,152.585,157.891,121.454z"
				/>
		</g>
		<g id="XMLID_38_">
			<path id="XMLID_444_" style="fill:#EDCEAE;" d="M183.32,143.195v92.095c0.057,0,0.112,0.004,0.168,0.004
				c26.431,0,46.607-22.262,55.652-38.956c3.337-6.162,6.294-20.712,7.719-37.944C239.017,157.911,207.723,155.281,183.32,143.195z"
				/>
			<path id="XMLID_445_" style="fill:#EDCEAE;" d="M236.826,77.773c1.131,2.058,2.168,4.16,3.12,6.293
				C239.004,81.791,237.967,79.683,236.826,77.773z"/>
		</g>
	</g>
	<g id="XMLID_34_">
		<rect id="XMLID_36_" x="110.987" style="fill:#DFE0F2;" width="145" height="89.299"/>
		<rect id="XMLID_440_" x="183.32" style="fill:#C6C8D7;" width="72.667" height="89.299"/>
	</g>
	<g id="XMLID_30_">
		<path id="XMLID_33_" style="fill:#CC2F3F;" d="M225.186,330.345c-0.275-1.019-0.649-2.181-1.114-3.457
			c-0.47-1.284-1.05-2.675-1.727-4.139c-1.422-3.064-3.287-6.259-5.392-9.233c-2.154-3.066-4.729-6.106-7.662-9.044
			c-1.992-1.976-4.027-3.771-6.074-5.397c17.87-4.886,27.77-17.087,27.77-35.103h-15c0,14.93-10.935,22.5-32.5,22.5
			s-32.5-7.57-32.5-22.5h-15c0,18.015,9.9,30.217,27.77,35.103c-2.05,1.627-4.086,3.424-6.083,5.404
			c-2.925,2.931-5.5,5.971-7.65,9.032c-2.107,2.979-3.974,6.173-5.396,9.241c-0.676,1.461-1.256,2.853-1.728,4.14
			c-0.463,1.273-0.837,2.435-1.107,3.435c-0.562,2-0.739,3.329-0.747,3.385l-0.339,2.583l2.583-0.339
			c0.056-0.007,1.385-0.185,3.367-0.742c1.023-0.277,2.185-0.652,3.456-1.114c1.292-0.473,2.684-1.054,4.139-1.726
			c3.062-1.42,6.256-3.286,9.233-5.392c3.066-2.154,6.107-4.73,9.045-7.662c2.929-2.953,5.497-5.998,7.633-9.045
			c1.205-1.708,2.098-3.511,3.105-5.288c1.007,1.777,2.336,3.578,3.539,5.283c2.14,3.052,4.708,6.097,7.644,9.057
			c2.931,2.925,5.972,5.5,9.032,7.651c2.983,2.109,6.178,3.975,9.241,5.396c1.453,0.671,2.845,1.252,4.141,1.727
			c1.268,0.461,2.429,0.835,3.436,1.108c1.999,0.561,3.328,0.739,3.384,0.746l2.583,0.339l-0.339-2.583
			C225.92,333.656,225.743,332.327,225.186,330.345z"/>
		<path id="XMLID_32_" style="fill:#B32A38;" d="M225.186,330.345c-0.275-1.019-0.649-2.181-1.114-3.457
			c-0.47-1.284-1.05-2.675-1.727-4.139c-1.422-3.064-3.287-6.259-5.392-9.233c-2.154-3.066-4.729-6.106-7.662-9.044
			c-1.992-1.976-4.027-3.771-6.074-5.397c17.87-4.886,27.77-17.087,27.77-35.103h-15c0,14.93-10.935,22.5-32.5,22.5
			c-0.074,0-0.145-0.002-0.219-0.002v18.517c1.007,1.777,2.336,3.578,3.539,5.283c2.14,3.052,4.708,6.097,7.644,9.057
			c2.931,2.925,5.972,5.5,9.032,7.651c2.983,2.109,6.178,3.975,9.241,5.396c1.453,0.671,2.845,1.252,4.141,1.727
			c1.268,0.461,2.429,0.835,3.436,1.108c1.999,0.561,3.328,0.739,3.384,0.746l2.583,0.339l-0.339-2.583
			C225.92,333.656,225.743,332.327,225.186,330.345z"/>
	</g>
</g>
<g>
</g>
<g>
</g>
<g>
</g>
<g>
</g>
<g>
</g>
<g>
</g>
<g>
</g>
<g>
</g>
<g>
</g>
<g>
</g>
<g>
</g>
<g>
</g>
<g>
</g>
<g>
</g>
<g>
</g>
</svg>
