<svg xmlns="http://www.w3.org/2000/svg" xmlns:xlink="http://www.w3.org/1999/xlink" viewBox="0 0 69.063 85" fill="#fff" fill-rule="evenodd" stroke="#000" stroke-linecap="round" stroke-linejoin="round"><use xlink:href="#A" x="2.031" y="2.5"/><symbol id="A" overflow="visible"><g stroke="none"><path d="M0 63.468l4.16 2.175 1.683-.4.316-30.236-2-.097-4.16.42v28.14z" fill="#9d5025"/><path d="M11.638 63.848L4.16 65.643V34.91l7.478.36v28.578z" fill="#f58534"/><path d="M8.07 67.583l7.134 3.687 4.62-1.502V22.2l-4.62-.897-7.134 2.185v44.097z" fill="#9d5025"/><path d="M27.417 67.29l-12.212 3.98V21.302l12.212 2.4v43.6z" fill="#f58534"/><path d="M54.404 22.794v34.528L62.6 58.63V21.302l-8.186 1.492z" fill="#9d5025"/><path d="M35.45 20.796l1.664-10.514 23.707 8.876v5.58l-6.293.907-19.078-4.848z" fill="#6b3b19"/><path d="M33.24 59.868l6.876 8.35 20.704-7.17v-5.696l-6.35-.907-21.23 5.423z" fill="#fcbf92"/><path d="M20.914 74.128l11.57 5.852 6.847-3.492L41.59 4.633 32.485 0l-11.57 5.9v68.227z" fill="#9d5025"/><path d="M32.486.02V80L65 63.42V16.6zM60.82 55.353L42.23 61.05v-41.94l18.6 5.647z" fill="#f58534"/></g></symbol></svg>