<svg xmlns="http://www.w3.org/2000/svg" viewBox="0 0 20.4 23.34"><defs><style>.cls-1{fill:#007aff;}</style></defs><title>Asset 4Home2</title><g id="Layer_2" data-name="Layer 2"><g id="Layer_1-2" data-name="Layer 1"><path class="cls-1" d="M20.39,17.88V4.54A1.89,1.89,0,0,0,18.5,2.65H13.8s0,0,0,0A3.77,3.77,0,0,1,13.49,4h5a.57.57,0,0,1,.57.57V17.68l-5.39,4.08V17.32h2.76V16H12.35v6H1.89a.57.57,0,0,1-.57-.57V4.54A.57.57,0,0,1,1.89,4H6.56a3.75,3.75,0,0,1-.31-1.32H1.89A1.89,1.89,0,0,0,0,4.54V21.45a1.89,1.89,0,0,0,1.89,1.89H13.63a1.08,1.08,0,0,0,.2,0,.88.88,0,0,0,.17-.11l6.15-4.66a.66.66,0,0,0,.22-.3l0-.11A.66.66,0,0,0,20.39,17.88Z"/><path class="cls-1" d="M15.59,10.11H4.49a.66.66,0,0,1,0-1.32h11.1a.66.66,0,0,1,0,1.32Z"/><path class="cls-1" d="M15.59,13.13H4.49a.66.66,0,0,1,0-1.32h11.1a.66.66,0,0,1,0,1.32Z"/><path class="cls-1" d="M11.86.83A2.43,2.43,0,0,0,10.18,0H10A2.45,2.45,0,0,0,8.91,4.63l-.3,1.16a.66.66,0,0,0,.47.81l.17,0a.66.66,0,0,0,.64-.49l.32-1.24A2.45,2.45,0,0,0,11.86.83ZM10,3.57H10A1.13,1.13,0,0,1,10,1.32h.07A1.13,1.13,0,0,1,10,3.57Z"/></g></g></svg>
