<svg xmlns="http://www.w3.org/2000/svg" xmlns:xlink="http://www.w3.org/1999/xlink" viewBox="0 0 79.99 79.94"><defs><style>.cls-1{isolation:isolate;}.cls-2{fill:#f2f2f2;}.cls-3{opacity:0.2;fill:url(#New_Gradient_Swatch_1);}.cls-3,.cls-5{mix-blend-mode:multiply;}.cls-4{fill:#e1106e;}.cls-5{opacity:0.1;fill:url(#New_Gradient_Swatch_1-2);}.cls-6{fill:#9b85c1;}</style><linearGradient id="New_Gradient_Swatch_1" x1="24.42" y1="17.91" x2="73.19" y2="66.69" gradientUnits="userSpaceOnUse"><stop offset="0"/><stop offset="1" stop-opacity="0"/></linearGradient><linearGradient id="New_Gradient_Swatch_1-2" x1="28.04" y1="30.79" x2="68.5" y2="71.24" xlink:href="#New_Gradient_Swatch_1"/></defs><title>role__teaching</title><g class="cls-1"><g id="Layer_1" data-name="Layer 1"><path class="cls-2" d="M79.65,39.83c0,1.07,0,2.12-.12,3.17s-.21,2.06-.37,3.08c-.06.41-.13.82-.21,1.22A39.8,39.8,0,0,1,53.67,77.18,39,39,0,0,1,47.3,79a40,40,0,0,1-12.66.36h-.1A39.83,39.83,0,1,1,79.65,39.83Z"/><path class="cls-3" d="M79.53,43c-.09,1-.21,2.06-.37,3.08-.06.41-.13.82-.21,1.22A39.8,39.8,0,0,1,53.67,77.18L26.54,50.06,40.15,61.67,54.89,47.42l6-10.31,1.2-5.64-2.69-8.6Z"/><path class="cls-4" d="M40.15,63.21l-.62-.57-1.87-1.71c-8.47-7.71-20.07-18.27-20.07-28.87a14.35,14.35,0,0,1,8.54-13.16,13.19,13.19,0,0,1,14,2.1,13.19,13.19,0,0,1,14-2.1,14.35,14.35,0,0,1,8.54,13.16c0,10.6-11.63,21.19-20.13,28.92l-1.82,1.66Z"/><path class="cls-2" d="M80,40.11a38.48,38.48,0,0,1-.44,5.81c0,.15,0,.29-.06.44,0,.41-.13.82-.21,1.22A39,39,0,0,1,77.09,55a39.72,39.72,0,0,1-36.25,24.9h-.67A40.16,40.16,0,0,1,35,79.6h-.1A39.83,39.83,0,1,1,80,40.11Z"/><path class="cls-5" d="M79.55,45.92c0,.15,0,.29-.06.44,0,.41-.13.82-.21,1.22A39,39,0,0,1,77.09,55a39.72,39.72,0,0,1-36.25,24.9L21.7,60.81,24,50.25,32,43.91l5.27-2.14-5.64-2.59-2.94-7,1.15-6,4.48-4.44,7-1.41,11-1.64Z"/><path class="cls-6" d="M45.4,41.78a11.75,11.75,0,0,0,6.46-11.71.32.32,0,0,0,.24-.08l.75-.75h0l.75-.75a.34.34,0,0,0,.07-.38l-.61-1.35a.34.34,0,0,1,0-.29l0,.05c.07-.15.13-.3.19-.46a.33.33,0,0,1,.2-.21l1.39-.52A.34.34,0,0,0,55,25V22.9a.34.34,0,0,0-.22-.31l-1.39-.52a.33.33,0,0,1-.2-.2c-.06-.16-.13-.32-.2-.48l0,.07a.33.33,0,0,1,0-.29l.61-1.35a.34.34,0,0,0-.07-.38l-.75-.75h0l-.75-.75a.33.33,0,0,0-.38-.07l-1.35.61a.34.34,0,0,1-.29,0l-.41-.17a.33.33,0,0,1-.21-.2L49,16.72a.34.34,0,0,0-.31-.22H46.52a.34.34,0,0,0-.31.22l-.52,1.39a.34.34,0,0,1-.21.2l-.4.17a.33.33,0,0,1-.29,0l-1.35-.61a.33.33,0,0,0-.38.07l-.75.75h0l-.75.75a.33.33,0,0,0-.07.14,11.75,11.75,0,0,0-6.57,22.2A19,19,0,0,0,21.23,60a1,1,0,0,0,2,0,16.93,16.93,0,1,1,33.86,0,1,1,0,0,0,2,0A19,19,0,0,0,45.4,41.78Zm2.19-20A2.22,2.22,0,1,1,45.37,24,2.22,2.22,0,0,1,47.59,21.75ZM30.39,31.27A9.67,9.67,0,0,1,42,21.7l-.08.2a.34.34,0,0,1-.19.18l-1.39.52a.34.34,0,0,0-.22.31V25a.34.34,0,0,0,.22.31l1.39.52a.34.34,0,0,1,.19.18l.18.43a.34.34,0,0,1,0,.29l-.61,1.35a.34.34,0,0,0,.07.38l.75.75h0l.75.75a.34.34,0,0,0,.38.07l1.35-.62a.34.34,0,0,1,.29,0l-.06,0,.46.2a.34.34,0,0,1,.21.2l.52,1.39a.34.34,0,0,0,.31.22h2.13A.34.34,0,0,0,49,31.2l.52-1.39a.34.34,0,0,1,.2-.2l.09,0a9.76,9.76,0,1,1-19.38,1.69Z"/></g></g></svg>