<?xml version="1.0" encoding="iso-8859-1"?>
<!-- Generator: Adobe Illustrator 20.1.0, SVG Export Plug-In . SVG Version: 6.00 Build 0)  -->
<svg xmlns="http://www.w3.org/2000/svg" xmlns:xlink="http://www.w3.org/1999/xlink" version="1.1" id="&#1057;&#1083;&#1086;&#1081;_1" x="0px" y="0px" viewBox="0 0 64 64" style="enable-background:new 0 0 64 64;" xml:space="preserve">
<linearGradient id="SVGID_1__48254" gradientUnits="userSpaceOnUse" x1="13" y1="43.25" x2="13" y2="53.2625" spreadMethod="reflect">
	<stop offset="0" style="stop-color:#6DC7FF"/>
	<stop offset="1" style="stop-color:#E6ABFF"/>
</linearGradient>
<rect x="11" y="47" style="fill:url(#SVGID_1__48254);" width="4" height="2"/>
<linearGradient id="SVGID_2__48254" gradientUnits="userSpaceOnUse" x1="51" y1="43.25" x2="51" y2="53.2625" spreadMethod="reflect">
	<stop offset="0" style="stop-color:#6DC7FF"/>
	<stop offset="1" style="stop-color:#E6ABFF"/>
</linearGradient>
<rect x="49" y="47" style="fill:url(#SVGID_2__48254);" width="4" height="2"/>
<linearGradient id="SVGID_3__48254" gradientUnits="userSpaceOnUse" x1="32" y1="17.5" x2="32" y2="23.2554" spreadMethod="reflect">
	<stop offset="0" style="stop-color:#6DC7FF"/>
	<stop offset="1" style="stop-color:#E6ABFF"/>
</linearGradient>
<rect x="23" y="19" style="fill:url(#SVGID_3__48254);" width="18" height="3"/>
<linearGradient id="SVGID_4__48254" gradientUnits="userSpaceOnUse" x1="32" y1="12" x2="32" y2="52.0008" spreadMethod="reflect">
	<stop offset="0" style="stop-color:#1A6DFF"/>
	<stop offset="1" style="stop-color:#C822FF"/>
</linearGradient>
<path style="fill:url(#SVGID_4__48254);" d="M59,13H5c-1.103,0-2,0.897-2,2v2c0,1.103,0.897,2,2,2h4v30c0,1.103,0.897,2,2,2h4  c1.103,0,2-0.897,2-2V29h30v20c0,1.103,0.897,2,2,2h4c1.103,0,2-0.897,2-2V19h4c1.103,0,2-0.897,2-2v-2C61,13.897,60.103,13,59,13z   M11,19h4l0.001,26H11V19z M11,49v-2h4v2H11z M17,27v-8h4v2c0,1.654,1.346,3,3,3h5.092c0.207,0.581,0.757,1,1.408,1h3  c0.651,0,1.201-0.419,1.408-1H40c1.654,0,3-1.346,3-3v-2h4v8H17z M33,22h-2h-2h-5c-0.551,0-1-0.449-1-1v-2h18v2c0,0.551-0.449,1-1,1  h-5H33z M49,49v-2h4v2H49z M53.001,45H49V19h4L53.001,45z M59,17h-4h-8H17H9H5v-2h54V17z"/>
</svg>
